<mxfile host="app.diagrams.net" agent="Mozilla/5.0 (Windows NT 10.0; Win64; x64; rv:129.0) Gecko/20100101 Firefox/129.0" border="50" scale="3" compressed="false" locked="false" version="24.7.7">
  <diagram name="Blank" id="YmL12bMKpDGza6XwsDPr">
    <mxGraphModel dx="2259" dy="515" grid="0" gridSize="10" guides="1" tooltips="1" connect="1" arrows="1" fold="1" page="0" pageScale="1" pageWidth="827" pageHeight="1169" background="none" math="1" shadow="0">
      <root>
        <mxCell id="X5NqExCQtvZxIxQ7pmgY-0" />
        <mxCell id="1" parent="X5NqExCQtvZxIxQ7pmgY-0" />
        <mxCell id="3iujyiFIKv-xdqHL7t24-19" style="edgeStyle=orthogonalEdgeStyle;rounded=0;orthogonalLoop=1;jettySize=auto;html=1;exitX=1;exitY=0.5;exitDx=0;exitDy=0;shape=flexArrow;startArrow=block;" edge="1" parent="1" source="3iujyiFIKv-xdqHL7t24-1">
          <mxGeometry relative="1" as="geometry">
            <mxPoint x="-160" y="210" as="targetPoint" />
          </mxGeometry>
        </mxCell>
        <mxCell id="3iujyiFIKv-xdqHL7t24-1" value="&lt;div&gt;MongoDB&lt;/div&gt;&lt;div&gt;&lt;br&gt;&lt;/div&gt;" style="image;aspect=fixed;perimeter=ellipsePerimeter;html=1;align=center;shadow=0;dashed=0;spacingTop=3;image=img/lib/active_directory/databases.svg;" vertex="1" parent="1">
          <mxGeometry x="-465" y="169" width="82.65" height="81" as="geometry" />
        </mxCell>
        <mxCell id="3iujyiFIKv-xdqHL7t24-2" value="&lt;div&gt;Redis cache&lt;/div&gt;&lt;div&gt;&lt;br&gt;&lt;/div&gt;" style="image;aspect=fixed;html=1;points=[];align=center;fontSize=12;image=img/lib/azure2/general/Cache.svg;" vertex="1" parent="1">
          <mxGeometry x="-465" y="294" width="89" height="89" as="geometry" />
        </mxCell>
        <mxCell id="3iujyiFIKv-xdqHL7t24-29" style="edgeStyle=orthogonalEdgeStyle;rounded=0;orthogonalLoop=1;jettySize=auto;html=1;entryX=0.5;entryY=0;entryDx=0;entryDy=0;shape=flexArrow;startArrow=block;" edge="1" parent="1" source="3iujyiFIKv-xdqHL7t24-4" target="3iujyiFIKv-xdqHL7t24-8">
          <mxGeometry relative="1" as="geometry" />
        </mxCell>
        <mxCell id="3iujyiFIKv-xdqHL7t24-4" value="Web service - backend" style="swimlane;whiteSpace=wrap;html=1;fillColor=#dae8fc;strokeColor=#6c8ebf;startSize=34;" vertex="1" parent="1">
          <mxGeometry x="-876" y="172" width="200" height="200" as="geometry" />
        </mxCell>
        <mxCell id="3iujyiFIKv-xdqHL7t24-5" value="Scrapers" style="whiteSpace=wrap;html=1;" vertex="1" parent="3iujyiFIKv-xdqHL7t24-4">
          <mxGeometry x="11" y="78" width="178" height="64" as="geometry" />
        </mxCell>
        <mxCell id="3iujyiFIKv-xdqHL7t24-8" value="&lt;font size=&quot;1&quot; color=&quot;#ffffff&quot;&gt;&lt;b style=&quot;font-size: 25px;&quot;&gt;GUI&lt;/b&gt;&lt;/font&gt;" style="ellipse;whiteSpace=wrap;html=1;fillColor=#b1ddf0;strokeColor=#10739e;" vertex="1" parent="1">
          <mxGeometry x="-891.5" y="525" width="231" height="112" as="geometry" />
        </mxCell>
        <mxCell id="3iujyiFIKv-xdqHL7t24-11" value="&lt;font face=&quot;Helvetica&quot;&gt;Web service - cache service&lt;/font&gt;" style="swimlane;whiteSpace=wrap;html=1;fillColor=#dae8fc;strokeColor=#6c8ebf;startSize=32;" vertex="1" parent="1">
          <mxGeometry x="-160" y="172" width="200" height="200" as="geometry" />
        </mxCell>
        <mxCell id="3iujyiFIKv-xdqHL7t24-12" value="Scrapers" style="whiteSpace=wrap;html=1;" vertex="1" parent="3iujyiFIKv-xdqHL7t24-11">
          <mxGeometry x="11" y="43" width="178" height="64" as="geometry" />
        </mxCell>
        <mxCell id="3iujyiFIKv-xdqHL7t24-30" value="Scheduler" style="whiteSpace=wrap;html=1;" vertex="1" parent="3iujyiFIKv-xdqHL7t24-11">
          <mxGeometry x="11" y="122" width="178" height="64" as="geometry" />
        </mxCell>
        <mxCell id="3iujyiFIKv-xdqHL7t24-23" style="edgeStyle=orthogonalEdgeStyle;rounded=0;orthogonalLoop=1;jettySize=auto;html=1;exitX=1;exitY=0.5;exitDx=0;exitDy=0;shape=flexArrow;startArrow=block;" edge="1" parent="1">
          <mxGeometry relative="1" as="geometry">
            <mxPoint x="-377" y="339.23" as="sourcePoint" />
            <mxPoint x="-161" y="340" as="targetPoint" />
          </mxGeometry>
        </mxCell>
        <mxCell id="3iujyiFIKv-xdqHL7t24-25" style="edgeStyle=orthogonalEdgeStyle;rounded=0;orthogonalLoop=1;jettySize=auto;html=1;exitX=1;exitY=0.5;exitDx=0;exitDy=0;shape=flexArrow;startArrow=block;" edge="1" parent="1">
          <mxGeometry relative="1" as="geometry">
            <mxPoint x="-676" y="331" as="sourcePoint" />
            <mxPoint x="-468" y="332" as="targetPoint" />
          </mxGeometry>
        </mxCell>
        <mxCell id="3iujyiFIKv-xdqHL7t24-28" style="edgeStyle=orthogonalEdgeStyle;rounded=0;orthogonalLoop=1;jettySize=auto;html=1;exitX=1;exitY=0.5;exitDx=0;exitDy=0;shape=flexArrow;startArrow=block;" edge="1" parent="1">
          <mxGeometry relative="1" as="geometry">
            <mxPoint x="-676" y="208.67" as="sourcePoint" />
            <mxPoint x="-468" y="209.67" as="targetPoint" />
          </mxGeometry>
        </mxCell>
      </root>
    </mxGraphModel>
  </diagram>
</mxfile>
